# xmcd
#
# Track frame offsets:
# 150
# 9676
# 16230
# 25439
# 36063
# 47474
# 58232
# 69510
# 80097
# 91607
# 105211
# 113617
# 122851
# 142339
# 152103
# 162063
# 174342
# 190406
# 202139
# 218561
#
# Disc length: 3101 seconds
#
#
# Revision: 2
# Processed by: cddbd v1.5.2PL0 Copyright (c) Steve Scherf et al.
# Submitted via: FreeRIP 2.942 
#
DISCID=0c0c1b14
DTITLE=Maria Peterson and Eva Eensaar - Laulud
DYEAR=2005
DGENRE=Vocal
TTITLE0=taipamine (uku masing)
TTITLE1=palve (doris kareva)
TTITLE2=lootust peab p2lvima (artur alliksaar)
TTITLE3=nii palju on vaadata (juhan viiding)
TTITLE4=r2ndaja 6htulaul (ernst enno)
TTITLE5=6htu (aaro hellakoski)
TTITLE6=saladus (aila meriluoto)
TTITLE7=laul sygavast dyynist (juhan viiding)
TTITLE8=tornikell (fernando pessoa)
TTITLE9=isegi l2bi talveakende (juhan viiding)
TTITLE10=6htu (marie under)
TTITLE11=yksildased ytlevad (avraham ben jitshak)
TTITLE12=legendaarne lend (heiti talvik)
TTITLE13=h2llilaul (august sang)
TTITLE14=valge lind (uuno kailas)
TTITLE15=enne (juhan viiding)
TTITLE16=nyyd on mul selge (juhan viiding)
TTITLE17=armastuslaul (juhan viiding)
TTITLE18=ja saadus hing (ernst enno)
TTITLE19=sinu silmadest
EXTD=
EXTT0=
EXTT1=
EXTT2=
EXTT3=
EXTT4=
EXTT5=
EXTT6=
EXTT7=
EXTT8=
EXTT9=
EXTT10=
EXTT11=
EXTT12=
EXTT13=
EXTT14=
EXTT15=
EXTT16=
EXTT17=
EXTT18=
EXTT19=
PLAYORDER=
